<?xml version="1.0" standalone="no"?>
<!DOCTYPE svg PUBLIC "-//W3C//DTD SVG 20010904//EN"
 "http://www.w3.org/TR/2001/REC-SVG-20010904/DTD/svg10.dtd">
<svg version="1.0" xmlns="http://www.w3.org/2000/svg"
 width="738.000000pt" height="1280.000000pt" viewBox="0 0 738.000000 1280.000000"
 preserveAspectRatio="xMidYMid meet">
<g transform="translate(0.000000,1280.000000) scale(0.100000,-0.100000)"
fill="#000000" stroke="none">
<path d="M155 12771 c-71 -33 -106 -70 -134 -146 -21 -56 -21 -56 -21 -2020
l0 -1963 25 -126 c14 -68 34 -149 46 -178 80 -205 231 -374 419 -468 114 -57
196 -79 353 -95 l57 -6 0 -3515 c0 -2442 3 -3544 11 -3611 29 -266 165 -472
374 -569 67 -31 235 -74 288 -74 62 0 225 44 297 79 166 83 288 235 347 436
17 57 18 249 23 3652 3 1975 8 3594 11 3597 3 4 46 11 94 17 327 37 609 272
729 608 l31 86 3 2055 c2 1530 0 2066 -9 2097 -51 186 -322 211 -417 38 -16
-27 -17 -155 -22 -1510 l-5 -1480 -440 0 -440 0 -5 1475 c-6 1633 0 1509 -70
1577 -19 18 -58 42 -88 53 l-55 21 -62 -21 c-69 -23 -114 -62 -142 -125 -17
-38 -18 -122 -23 -1510 l-5 -1470 -420 0 -420 0 -5 1460 c-4 1165 -8 1468 -18
1499 -20 58 -85 122 -148 146 -70 26 -86 25 -159 -9z"/>
<path d="M6169 12770 c-294 -50 -552 -223 -700 -471 -88 -147 -139 -316 -158
-519 -8 -79 -11 -1146 -11 -3407 l0 -3293 363 -2 362 -3 5 -2240 c5 -2099 6
-2244 23 -2300 71 -243 244 -417 473 -475 96 -25 251 -27 343 -4 220 53 403
228 465 445 49 169 46 -189 46 5699 0 5442 0 5486 -20 5622 -25 171 -58 286
-115 401 -143 287 -409 488 -720 542 -91 16 -277 18 -356 5z"/>
</g>
</svg>
